<svg xmlns="http://www.w3.org/2000/svg" viewBox="0 0 166.2 157.8" enable-background="new 0 0 166.2 157.8"><style type="text/css">.st0{fill:url(#SVGID_1_);stroke:#808080;stroke-width:5;stroke-miterlimit:10;} .st1{fill:url(#SVGID_2_);stroke:#808080;stroke-width:5;stroke-miterlimit:10;}</style><radialGradient id="SVGID_1_" cx="109.925" cy="54.209" r="51.505" gradientUnits="userSpaceOnUse"><stop offset="0" stop-color="#fff"/><stop offset="1" stop-color="#ccc"/></radialGradient><path class="st0" d="M134 81.5c8.1-4.2 17.3-6.3 27.2-6.7-2.7-3.5-5.5-7.1-8.5-10.6-34.2-41-73.9-68.1-88.6-60.4-14.7 7.6 1.1 47.1 35.3 88.1 4.1 4.9 8.2 9.6 12.4 14 4.1-10.3 11.5-18.8 22.2-24.4z"/><radialGradient id="SVGID_2_" cx="63.167" cy="119.699" r="49.426" gradientUnits="userSpaceOnUse"><stop offset="0" stop-color="#fff"/><stop offset="1" stop-color="#ccc"/></radialGradient><path class="st1" d="M104.8 121.8c4.4-7.9 11-14.8 19.1-20.5-4.2-1.5-8.5-2.9-12.9-4.2-51.2-15.5-99.2-16.2-107.3-1.7-8.1 14.5 26.8 38.7 77.9 54.2 6.1 1.8 12.1 3.5 18.1 4.9-2.3-10.9-.8-22.1 5.1-32.7z"/></svg>