<svg xmlns="http://www.w3.org/2000/svg" viewBox="0 0 189.8 189.8" enable-background="new 0 0 189.8 189.8"><style type="text/css">.st0{fill:url(#SVGID_1_);stroke:#808080;stroke-width:5;stroke-miterlimit:10;} .st1{fill:#FFFFFF;} .st2{fill:#FF7BAC;}</style><radialGradient id="SVGID_1_" cx="94.884" cy="94.884" r="92.384" gradientUnits="userSpaceOnUse"><stop offset="0" stop-color="#fff"/><stop offset="1" stop-color="#ccc"/></radialGradient><circle class="st0" cx="94.9" cy="94.9" r="92.4"/><circle cx="67" cy="110.8" r="28.7"/><circle class="st1" cx="58.9" cy="104.7" r="12.6"/><circle class="st1" cx="78.1" cy="117.9" r="5.9"/><circle cx="148" cy="78.3" r="23.4"/><circle class="st1" cx="157.7" cy="84.1" r="5.9"/><circle class="st1" cx="141.4" cy="74.1" r="10.3"/><path class="st2" d="M135.9 129.2c-1.5 3.5-4 5.9-6.5 6.7-2.3 1.2-5.9 1.1-9.3-.3-5-2.1-8-6.5-6.6-9.7 1.3-3.1 6.1-4.1 10.9-2.3 2.2-4.6 6.3-7.3 9.5-5.9 3.2 1.3 4.1 6.5 2 11.5z"/></svg>