<svg xmlns="http://www.w3.org/2000/svg" viewBox="0 0 140 140" enable-background="new 0 0 140 140"><path d="M30.4-109s-1.3 188.4 4.6 215.6c5 23 25.1 12.8 26.9 4.5s-.8-40.2 12.6-40.7c16.8-.7 17.5 16.3 17.5 37.5 0 14.8 26.9 20.5 26.2-14.7-.7-35.2 2.8-136.1-10.7-208.4 0 0-58.9-4.1-77.1 6.2z" fill="#88CEC2"/><path d="M89.9-17.1c-1.6 0-3.1.1-4.5.4h-.1c-1.1.2-2.1.4-3.1.7-6.1 1.1-12.7.7-17.3.1-2-.6-4.1-1-6.4-1.1-.5 0-1-.1-1.6-.1-10.6 0-19.3 5.8-19.3 12.9 0 7.2 8.6 12.9 19.3 12.9.7 0 1.4 0 2.1-.1l-.5.4s15-2.5 27-.2l-.8-.5c1.7.3 3.4.5 5.2.5 10.6 0 19.3-5.8 19.3-12.9 0-7.2-8.6-13-19.3-13zM50.7 100.2c-.3 0-.6.1-.9.2l-.6.3c-1.2.5-2.4.3-3.3 0-.4-.3-.8-.4-1.2-.5h-.3c-2 0-3.7 2.6-3.7 5.8 0 3.2 1.7 5.8 3.7 5.8h.4l-.1.1s2.9-1.1 5.2-.1l-.1-.2c.3.1.7.2 1 .2 2 0 3.7-2.6 3.7-5.8-.1-3.2-1.7-5.8-3.8-5.8zM108.2 99.7c-.3 0-.6.1-.9.2l-.6.3c-1.2.5-2.6.3-3.5 0-.4-.3-.8-.5-1.3-.5h-.3c-2.1 0-3.9 2.7-3.9 6.1 0 3.4 1.7 6.1 3.9 6.1h.4l-.1.1s3-1.2 5.4-.1l-.2-.2c.3.1.7.2 1.1.2 2.1 0 3.9-2.7 3.9-6.1 0-3.4-1.7-6.1-3.9-6.1zM58.7 51.3c.1-.4.2-.8.3-1.3l1.6-23.6v-.6c.8-.5 1.4-1.4 1.5-2.5.2-1.8-1.2-3.4-3-3.5h-.8c-.2 0-.4.1-.5.1-1.1.2-2.2 0-2.9-.2-.3-.2-.7-.3-1.1-.4h-.3c-1.8-.2-3.4 1.2-3.5 3-.1.9.2 1.8.8 2.4-.1.3-.2.7-.2 1l-1.6 23.6v.8c-.9.5-1.5 1.4-1.6 2.5-.2 1.8 1.2 3.4 3 3.5h.4l-.1.1s2.6-.4 4.6.3l-.1-.1c.3.1.6.2.9.2 1.8.2 3.4-1.2 3.5-3 0-.8-.3-1.7-.9-2.3zM53.4 91.7c.1-.4.2-.8.2-1.3l1.7-23.3v-.6c.7-.5 1.1-1.4 1.2-2.5.2-1.8-.8-3.3-2.2-3.4h-.6l-.4.1c-.8.2-1.7 0-2.2-.2-.2-.2-.5-.3-.8-.3h-.2c-1.4-.1-2.6 1.2-2.8 3-.1.9.1 1.7.6 2.4l-.2 1-1.7 23.4v.7c-.7.5-1.2 1.5-1.3 2.6-.2 1.8.8 3.3 2.2 3.4h.3l-.1.1s2-.5 3.5.2l-.1-.1c.2.1.4.2.7.2 1.4.1 2.6-1.2 2.8-3 0-.9-.2-1.8-.6-2.4zM108.4 90.2v-1.4l-3.5-26.1c0-.2-.1-.4-.1-.7.5-.7.8-1.8.7-3-.2-2-1.6-3.5-3-3.3-.2 0-.4.1-.6.2l-.4.2c-.8.4-1.6 1-2.3.9l-.9.7v.3l-.2-.9c-1.4.2-2.3 1.5-2.1 3.5.1 1 .5 1.7 1.1 2.3 0 .4 0 .6.1 1l3.5 26c0 .3.1.5.2.8-.6.7-.9 1.9-.7 3.1.2 2 1.6 3.5 3 3.3.1 0 .2 0 .3-.1l-.1.1s1.9-.9 3.5-.5l-.1-.1c.2.1.5.1.7.1 1.4-.2 2.3-1.9 2.1-3.9-.2-1.1-.6-1.9-1.2-2.5zM102.6 47.2c.1-.4.1-.8 0-1.2l-3.2-21.2c0-.2-.1-.4-.1-.5.7-.6 1.1-1.5 1-2.5-.2-1.6-1.8-2.7-3.6-2.5-.3 0-.5.1-.7.2l-.5.2c-1 .4-2.1.4-2.9.4-.4-.1-.7-.1-1.1-.1h-.3c-1.8.2-3.1 1.7-2.9 3.4.1.8.6 1.5 1.3 2v.9l3.2 21.2c0 .2.1.4.2.7-.8.6-1.2 1.6-1.1 2.6.2 1.6 1.8 2.7 3.6 2.5.1 0 .2 0 .3-.1l-.1.1s2.5-.9 4.5-.7l-.1-.1h.9c1.8-.2 3.1-1.7 2.9-3.4-.2-.8-.7-1.4-1.3-1.9z" fill="#EDE6DB"/><ellipse transform="matrix(.999 .034 -.034 .999 -.11 -1.922)" cx="56.2" cy="-4.2" rx="10.2" ry="6.6" fill="#88CEC2"/><ellipse transform="matrix(.993 -.12 .12 .993 1.189 10.809)" cx="90.5" cy="-4.5" rx="10.8" ry="6.9" fill="#88CEC2"/></svg>