<svg xmlns="http://www.w3.org/2000/svg" xmlns:xlink="http://www.w3.org/1999/xlink" viewBox="0 0 140 140" enable-background="new 0 0 140 140"><pattern y="-140" width="60.2" height="60.2" patternUnits="userSpaceOnUse" id="f" viewBox="0 -60.2 60.2 60.2" overflow="visible"><path fill="none" d="M0-60.2h60.2v60.2h-60.2z"/><path fill="#282C4F" d="M60.2 0h-60.2v-60.2h60.2z"/><path fill="#FAF6E2" d="M19.2-51.2l3.1 4.1 5.1-.2-2.9 4.2 1.8 4.8-4.9-1.5-3.9 3.2-.2-5.1-4.2-2.8 4.8-1.7zM42.2-20.2l2.9-2.2-.2-3.6 3 2 3.3-1.3-1 3.5 2.3 2.8-3.6.1-2 3-1.2-3.4zM5.6-25.3l2.8-2.2-.1-3.6 2.9 2 3.4-1.3-1 3.5 2.3 2.8-3.7.1-1.9 3-1.2-3.4zM22.5-26.2l5.7 3.8 6.4-2.6-1.8 6.6 4.4 5.2-6.8.4-3.6 5.8-2.5-6.4-6.6-1.7 5.3-4.3zM42.5-51.3l2.8 6.2 6.7 1.2-5 4.7.9 6.8-6-3.4-6.2 2.9 1.4-6.7-4.7-4.9 6.8-.8z"/></pattern><image width="450" height="328" xlink:href="5D8A6706B8E41C3A.jpg" transform="matrix(.251 0 0 .251 -205 -111.182)" overflow="visible"/><image width="225" height="225" xlink:href="5D8A6706B8E41C3E.jpg" transform="translate(-306 42)" overflow="visible"/><image width="222" height="227" xlink:href="5D8A6706B8E41C39.jpg" transform="translate(-448 -290)" overflow="visible"/><image width="224" height="195" xlink:href="5D8A6706B8E41C3A.png" transform="translate(299.5 -163.275)" overflow="visible"/><image width="92" height="48" xlink:href="5D8A6706B8E41C39.png" transform="translate(265.7 -90.075)" overflow="visible" opacity=".63"/><path d="M346-83.8l-66.5-2.5s-8.5 19 4.5 25c0 0 56.5-2.5 62-7v-15.5z" fill="#88CEC2"/><image width="122" height="165" xlink:href="5D8A6706B8E41C46.png" transform="translate(368.5 -141.275)" overflow="visible"/><path d="M104.9 28.5s17.9 23.1 24.4 49.9c6.5 26.8-1.8 31.1-6.3 22.7l-18.1-72.6zM40.2 33.3s-19.2 19-27 42.6.4 28.4 5.3 21.3c4.9-7.2 21.7-63.9 21.7-63.9zM30.4 31s-1.3 188.4 4.6 215.6c5 23 25.1 12.8 26.9 4.5 1.8-8.3-.8-40.2 12.6-40.7 16.7-.7 17.5 16.4 17.5 37.5 0 14.8 26.9 20.5 26.2-14.7-.7-35.2 2.8-136.1-10.7-208.4 0 0-58.9-4.1-77.1 6.2z" fill="#88CEC2"/><image width="196" height="125" xlink:href="5D8A6706B8E41C49.png" transform="translate(363.5 -266.275)" overflow="visible"/><path d="M101.5-94.1s26.5-15.5 27.7-26c1.3-10.5-16.1-5.2-41.9 21.4-.8.7 2.8 13 14.2 4.6zM76.9-101.7s26.5-15.5 27.7-26-16.1-5.2-41.9 21.4c-.8.7 2.8 13 14.2 4.6z" fill="#88CEC2"/><image width="179" height="162" xlink:href="5D8A6706B8E41C4A.png" transform="translate(279.7 -248.075)" overflow="visible" opacity=".63"/><image width="227" height="211" xlink:href="5D8A6706B8E41C48.png" transform="translate(255.5 -280.275)" overflow="visible"/><path d="M127.5-56.8c.1 29.4-25.8 51.2-57.5 51.2s-57.5-20-57.5-51.2c0-35.9 25.8-51.2 57.5-51.2s57.4 17.1 57.5 51.2z" fill="#88CEC2"/><image width="107" height="107" xlink:href="8500E3F8B8F814BD.png" transform="translate(256.7 -212.075)" overflow="visible" opacity=".63"/><radialGradient id="a" cx="285" cy="-197.775" r="67.101" gradientUnits="userSpaceOnUse"><stop offset=".596" stop-color="#fff"/><stop offset="1" stop-color="#E1D6C3"/></radialGradient><circle cx="309.8" cy="-165.6" r="42" fill="url(#a)"/><image width="69" height="70" xlink:href="8500E3F8B8F814B3.png" transform="translate(391.7 -196.075)" overflow="visible" opacity=".63"/><radialGradient id="b" cx="419.5" cy="-179.275" r="28.632" gradientUnits="userSpaceOnUse"><stop offset=".596" stop-color="#fff"/><stop offset="1" stop-color="#E1D6C3"/></radialGradient><circle cx="426.1" cy="-168.1" r="22.9" fill="url(#b)"/><radialGradient id="c" cx="426.069" cy="-168.08" r="23.431" gradientUnits="userSpaceOnUse"><stop offset=".596" stop-color="#fff"/><stop offset="1" stop-color="#E1D6C3"/></radialGradient><circle cx="426.1" cy="-168.1" r="22.9" stroke="url(#c)" stroke-miterlimit="10" fill="none"/><radialGradient id="d" cx="425.184" cy="-170.747" r="10.839" gradientUnits="userSpaceOnUse"><stop offset="0" stop-color="#88CEC2"/><stop offset=".754" stop-color="#282C4F"/></radialGradient><circle cx="426.2" cy="-168.1" r="10.8" fill="url(#d)"/><circle cx="424.3" cy="-170" r="2.8" fill="#fff"/><radialGradient id="e" cx="305.869" cy="-169.391" r="20.089" fx="298.92" fy="-178.342" gradientUnits="userSpaceOnUse"><stop offset="0" stop-color="#88CEC2"/><stop offset=".754" stop-color="#282C4F"/></radialGradient><circle cx="305.9" cy="-169.4" r="20.1" fill="url(#e)"/><circle cx="300.5" cy="-174.8" r="5.3" fill="#fff"/><image width="40" height="27" xlink:href="8500E3F8B8F814B5.png" transform="translate(359.86 -149.915)" overflow="visible" opacity=".52"/><path d="M369-143.3h18.5s-7.5 12.5-18.5 0z" fill="#FAF6E2"/><path d="M369-143.3h18.5s-7.5 12.5-18.5 0z" stroke="#E1D6C3" stroke-width="2" stroke-linecap="round" stroke-linejoin="round" stroke-miterlimit="10" fill="none"/><image width="91" height="111" xlink:href="8500E3F8B8F814B7.png" transform="translate(298.7 -319.075)" overflow="visible" opacity=".63"/><path d="M323.5-228.9l-13.7-85.9 68.5 77c-.1 0-33.3 15.3-54.8 8.9z" fill="url(#f)"/><image width="138" height="190" xlink:href="8500E3F8B8F814B4.png" transform="translate(204.5 -175.275)" overflow="visible" opacity=".3"/><image width="114" height="166" xlink:href="8500E3F8B8F814AC.png" transform="translate(216.7 -163.075)" overflow="visible" opacity=".63"/><path d="M229.5-157.2l3.5 36.5s2 .8 3-2.8l4-11.7 72.7 118 4.8-4-71.5-116.6 11 3s4-2 1-3-29.1-25.4-28.5-19.4z" fill="#fff"/><path d="M229.5-157.2l3.5 36.5s2 .8 3-2.8l4-11.7 72.7 118 4.8-4-71.5-116.6 11 3s4-2 1-3-29.1-25.4-28.5-19.4z" stroke="#FAF6E2" stroke-width="2" stroke-linecap="round" stroke-linejoin="round" stroke-miterlimit="10" fill="none"/><image width="51" height="53" xlink:href="8500E3F8B8F814AD.png" transform="translate(258.7 -94.075)" overflow="visible" opacity=".63"/><path d="M290.4-61.1c-6.5 3.1-14.4.4-17.6-6.2l-1.7-3.5c-3.1-6.5-.4-14.4 6.2-17.6 6.5-3.1 14.4-.4 17.6 6.2l1.7 3.5c3.1 6.5.3 14.4-6.2 17.6z" fill="#88CEC2"/><ellipse cx="70" cy="-57.7" rx="45" ry="35.5" fill="#EDE6DB"/><circle cx="43.4" cy="-66.6" r="12.7" fill="#88CEC2"/><circle cx="94.9" cy="-66.5" r="12.7" fill="#88CEC2"/><circle cx="41.7" cy="-70" r="4.7" fill="#fff"/><circle cx="91.2" cy="-70" r="3.7" fill="#fff"/><path fill="#88CEC2" d="M53-8h34.5v35.5h-34.5zM66.1-58.8l-6.7 8.1s.6 5.1 5.5 3.4l1.8-2.8 2.1 2.6s5.1 1.7 5-2.2l-7.7-9.1z"/><path d="M84 84l12.3-21.3s-3.4-11.4-14-5.7l-2.9 7.2-5.9-5.3s-12.4-1.9-10.6 7l21.1 18.1z" fill="#E8625B"/><path fill="#88CEC2" d="M66.3-34.7h3.7v22h-3.7zM53-34.7h3.1v20h-3.1zM80.7-34.7h3v20.3h-3z"/><path fill="#EDE6DB" d="M56.1-24.7h10.2v7.7h-10.2zM70-24.7h10.7v7.7h-10.7zM73.2 22.4h-6.3c-2.2 0-4-1.8-4-4s1.8-4 4-4h6.3c2.2 0 4 1.8 4 4-.1 2.3-1.9 4-4 4zM75.7 117.2h-8c-2.8 0-5-2.3-5-5 0-2.8 2.3-5 5-5h8c2.8 0 5 2.3 5 5 0 2.8-2.3 5-5 5zM75.4 105.2h-8c-2.8 0-5-2.3-5-5 0-2.8 2.3-5 5-5h8c2.8 0 5 2.3 5 5 .1 2.8-2.2 5-5 5zM64.1 41.3l-22.5 6.1c-2.7.7-5.4-.9-6.1-3.5-.7-2.7.9-5.4 3.5-6.1l22.5-6.1c2.7-.7 5.4.9 6.1 3.5.7 2.6-.9 5.4-3.5 6.1zM64.5 57.1l-22.1 7.5c-2.6.9-5.5-.5-6.4-3.1-.9-2.6.5-5.5 3.1-6.4l22.1-7.5c2.6-.9 5.5.5 6.4 3.1.9 2.6-.5 5.5-3.1 6.4zM65.6 74.3l-21.4 9.2c-2.5 1.1-5.5-.1-6.6-2.6-1.1-2.5.1-5.5 2.6-6.6l21.4-9.2c2.5-1.1 5.5.1 6.6 2.6 1.1 2.6-.1 5.5-2.6 6.6zM65.3 93l-17.1 8.2c-2.5 1.2-5.5.1-6.7-2.3-1.2-2.5-.1-5.5 2.3-6.7l17.1-8.2c2.5-1.2 5.5-.1 6.7 2.3 1.2 2.5.2 5.5-2.3 6.7zM79.1 41.3l22.5 6.1c2.7.7 5.4-.9 6.1-3.5.7-2.7-.9-5.4-3.5-6.1l-22.5-6.1c-2.7-.7-5.4.9-6.1 3.5-.8 2.6.8 5.4 3.5 6.1zM78.6 57.1l22.1 7.5c2.6.9 5.5-.5 6.4-3.1.9-2.6-.5-5.5-3.1-6.4l-22.1-7.5c-2.6-.9-5.5.5-6.4 3.1-.9 2.6.5 5.5 3.1 6.4zM77.6 74.3l21.4 9.2c2.5 1.1 5.5-.1 6.6-2.6 1.1-2.5-.1-5.5-2.6-6.6l-21.4-9.2c-2.6-1.1-5.6.1-6.7 2.6-1.1 2.6.1 5.5 2.7 6.6zM77.9 93l17.1 8.2c2.5 1.2 5.5.1 6.7-2.3 1.2-2.5.1-5.5-2.3-6.7l-17.2-8.2c-2.5-1.2-5.5-.1-6.7 2.3-1.2 2.5-.1 5.5 2.4 6.7zM73.2 11.4h-6.3c-2.2 0-4-1.8-4-4s1.8-4 4-4h6.3c2.2 0 4 1.8 4 4-.1 2.2-1.9 4-4 4zM73.2-1.6h-6.3c-2.2 0-4-1.8-4-4s1.8-4 4-4h6.3c2.2 0 4 1.8 4 4-.1 2.2-1.9 4-4 4zM89.9 122.9c-1.6 0-3.1.1-4.5.4h-.1c-1.1.2-2.1.4-3.1.7-6.1 1.1-12.7.7-17.3.1-2-.6-4.1-1-6.4-1.1-.5 0-1-.1-1.6-.1-10.6 0-19.3 5.8-19.3 12.9 0 7.2 8.6 12.9 19.3 12.9.7 0 1.4 0 2.1-.1l-.5.3s15-2.5 27-.2l-.8-.5c1.7.3 3.4.5 5.2.5 10.6 0 19.3-5.8 19.3-12.9 0-7.1-8.6-12.9-19.3-12.9zM50.7 240.2c-.3 0-.6.1-.9.2l-.6.3c-1.2.5-2.4.3-3.3 0-.4-.3-.8-.4-1.2-.5h-.3c-2 0-3.7 2.6-3.7 5.8 0 3.2 1.7 5.8 3.7 5.8h.4l-.1.1s2.9-1.1 5.2-.1l-.1-.2c.3.1.7.2 1 .2 2 0 3.7-2.6 3.7-5.8-.1-3.2-1.7-5.8-3.8-5.8zM108.2 239.7c-.3 0-.6.1-.9.2l-.6.3c-1.2.5-2.6.3-3.5 0-.4-.3-.8-.5-1.3-.5h-.3c-2.1 0-3.9 2.7-3.9 6.1 0 3.4 1.7 6.1 3.9 6.1h.4l-.1.1s3-1.2 5.4-.1l-.2-.2c.3.1.7.2 1.1.2 2.1 0 3.9-2.7 3.9-6.1 0-3.4-1.7-6.1-3.9-6.1zM58.7 191.3c.1-.4.2-.8.3-1.3l1.6-23.6v-.6c.8-.5 1.4-1.4 1.5-2.5.2-1.8-1.2-3.4-3-3.5h-.8c-.2 0-.4.1-.5.1-1.1.2-2.2 0-2.9-.2-.3-.2-.7-.3-1.1-.4h-.3c-1.8-.2-3.4 1.2-3.5 3-.1.9.2 1.8.8 2.4-.1.3-.2.7-.2 1l-1.6 23.6v.8c-.9.5-1.5 1.4-1.6 2.5-.2 1.8 1.2 3.4 3 3.5h.4l-.1.1s2.6-.4 4.6.3l-.1-.1c.3.1.6.2.9.2 1.8.2 3.4-1.2 3.5-3 0-.8-.3-1.7-.9-2.3zM53.4 231.7c.1-.4.2-.8.2-1.3l1.7-23.3v-.6c.7-.5 1.1-1.4 1.2-2.5.2-1.8-.8-3.3-2.2-3.4h-.6l-.4.1c-.8.2-1.7 0-2.2-.2-.2-.2-.5-.3-.8-.3h-.2c-1.4-.1-2.6 1.2-2.8 3-.1.9.1 1.7.6 2.4l-.2 1-1.7 23.4v.7c-.7.5-1.2 1.5-1.3 2.6-.2 1.8.8 3.3 2.2 3.4h.3l-.1.1s2-.5 3.5.2l-.1-.1c.2.1.4.2.7.2 1.4.1 2.6-1.2 2.8-3 0-.9-.2-1.8-.6-2.4zM20.8 76.4c.2-.3.4-.7.5-1l8.9-19.3.2-.5c.5-.4 1-1 1.4-1.9.7-1.5.8-2.9.2-3.2-.1 0-.2-.1-.3 0-.1 0-.2 0-.2.1-.5.1-.8-.2-1-.4-.1-.2.2-.2.1-.3l.4.1-.4-.1c-.6-.3-1.8.6-2.5 2.1-.4.7-.6 1.5-.7 2-.1.3-.3.5-.5.8l-8.9 19.2-.3.6c-.5.3-1.1 1.1-1.5 2-.7 1.5-.8 2.9-.2 3.2h.1-.1s1.1-.1 1.5.7v-.1c.1.1.1.2.2.2.6.3 1.6-.7 2.3-2.1.6-.8.8-1.5.8-2.1zM123.7 77.5l-.3-1.1-7.1-20-.2-.5c.1-.6 0-1.5-.3-2.4-.5-1.5-1.7-2.6-2.3-2.4-.1 0-.5.1-.5.2h.2v.2c-.3.4-.6.4-1 .4-.2-.1 0-.5-.1-.5l.3-.4-.4.4c-.6.2-.9 1.8-.3 3.4.3.8.6 1.5 1 2l.2.9 7.1 20c.1.2.2.4.2.6-.1.6 0 1.5.3 2.5.5 1.5 1.5 2.6 2.1 2.4 0 0 .1 0 .1-.1v.1s.7-.8 1.6-.6l-.1-.1h.3c.6-.2.7-1.6.2-3.2-.3-.7-.7-1.4-1-1.8zM108.4 230.2v-1.4l-3.5-26.1c0-.2-.1-.4-.1-.7.5-.7.8-1.8.7-3-.2-2-1.6-3.5-3-3.3-.2 0-.4.1-.6.2l-.4.2c-.8.4-1.6 1-2.3.9l-.9.7v.3l-.2-.9c-1.4.2-2.3 1.5-2.1 3.5.1 1 .5 1.7 1.1 2.3 0 .4 0 .6.1 1l3.5 26c0 .3.1.5.2.8-.6.7-.9 1.9-.7 3.1.2 2 1.6 3.5 3 3.3.1 0 .2 0 .3-.1l-.1.1s1.9-.9 3.5-.5l-.1-.1c.2.1.5.1.7.1 1.4-.2 2.3-1.9 2.1-3.9-.2-1.1-.6-1.9-1.2-2.5zM102.6 187.2c.1-.4.1-.8 0-1.2l-3.2-21.2c0-.2-.1-.4-.1-.5.7-.6 1.1-1.5 1-2.5-.2-1.6-1.8-2.7-3.6-2.5-.3 0-.5.1-.7.2l-.5.2c-1 .4-2.1.4-2.9.4-.4-.1-.7-.1-1.1-.1h-.3c-1.8.2-3.1 1.7-2.9 3.4.1.8.6 1.5 1.3 2v.9l3.2 21.2c0 .2.1.4.2.7-.8.6-1.2 1.6-1.1 2.6.2 1.6 1.8 2.7 3.6 2.5.1 0 .2 0 .3-.1l-.1.1s2.5-.9 4.5-.7l-.1-.1h.9c1.8-.2 3.1-1.7 2.9-3.4-.2-.8-.7-1.4-1.3-1.9zM17.7 83.1c-.1 0-.2.1-.4.2v.1l-.3.1c-.5.3-1.1 0-1.4-.2-.1-.2-.4-.3-.6-.4h-.1v-.1c-.8-.1-1.7 1.6-2.1 3.8-.3 2.2.1 4.1 1 4.2h.2v.1s1.3-.6 2.2.2v-.2c.1.1.3.2.4.2.8.1 1.8-1.6 2.1-3.8.3-2.2-.1-4.1-1-4.2zM125.9 85.7c-.1 0-.2.2-.2.3l.1.1c-.1.1-.2.1-.2.2-.4.5-.9.5-1.4.4-.2-.1-.7-.1-.8-.1l-.2.1.1-.1c-.8.3-.8 2.2-.2 4.3.7 2.1 1.9 3.6 2.8 3.4l.2-.1v.1s.9-1.1 2.1-.7l-.1-.1c.2.1.3.1.5 0 .8-.3.9-2.2.3-4.3-1-2.3-2.2-3.8-3-3.5z"/><ellipse transform="matrix(.999 .034 -.034 .999 4.674 -1.841)" cx="56.2" cy="135.8" rx="10.2" ry="6.6" fill="#88CEC2"/><ellipse transform="matrix(.993 -.12 .12 .993 -15.586 11.818)" cx="90.5" cy="135.5" rx="10.8" ry="6.9" fill="#88CEC2"/></svg>