<svg xmlns="http://www.w3.org/2000/svg" viewBox="0 0 140 140" enable-background="new 0 0 140 140"><path d="M101.5 45.9s26.5-15.5 27.7-26c1.3-10.5-16.1-5.2-41.9 21.4-.8.7 2.8 13 14.2 4.6zM76.9 38.3s26.5-15.5 27.7-26-16.1-5.2-41.8 21.4c-.9.7 2.7 13 14.1 4.6zM127.5 83.2c.1 29.3-25.7 51.2-57.5 51.2s-57.5-20-57.5-51.2c0-35.9 25.8-51.2 57.5-51.2s57.4 17.1 57.5 51.2z" fill="#88CEC2"/><ellipse cx="70" cy="82.3" rx="45" ry="35.5" fill="#EDE6DB"/><circle cx="43.4" cy="73.4" r="12.7" fill="#88CEC2"/><circle cx="94.9" cy="73.5" r="12.7" fill="#88CEC2"/><circle cx="41.7" cy="70" r="4.7" fill="#fff"/><circle cx="91.2" cy="70" r="3.7" fill="#fff"/><path fill="#88CEC2" d="M53 132h34.5v35.5h-34.5zM66.1 81.2l-6.7 8.1s.6 5.1 5.5 3.4l1.8-2.8 2.1 2.6s5.1 1.7 5-2.2l-7.7-9.1zM66.3 105.3h3.7v22h-3.7zM53 105.3h3.1v20h-3.1zM80.7 105.3h3v20.3h-3z"/><path fill="#EDE6DB" d="M56.1 115.3h10.2v7.7h-10.2zM70 115.3h10.7v7.7h-10.7zM73.2 138.4h-6.3c-2.2 0-4-1.8-4-4s1.8-4 4-4h6.3c2.2 0 4 1.8 4 4-.1 2.2-1.9 4-4 4z"/></svg>