<svg xmlns="http://www.w3.org/2000/svg" viewBox="0 0 71 73.6" enable-background="new 0 0 71 73.6"><style type="text/css">.st0{fill:url(#SVGID_1_);stroke:#999999;stroke-width:5;stroke-miterlimit:10;}</style><radialGradient id="SVGID_1_" cx="35.503" cy="36.779" r="33.647" gradientUnits="userSpaceOnUse"><stop offset="0" stop-color="#fff"/><stop offset="1" stop-color="#E6E6E6"/></radialGradient><path class="st0" d="M64.9 36.8c2.3 3.5 3.6 7.6 3.6 12.1 0 12.2-9.9 22.2-22.2 22.2-7.9 0-14.9-4.2-18.8-10.4-1 .1-1.9.2-2.9.2-12.2 0-22.2-9.9-22.2-22.2 0-12.2 9.9-22.2 22.2-22.2h1.1c3.3-8.2 11.3-14 20.6-14 12.2 0 22.2 9.9 22.2 22.2 0 4.4-1.3 8.6-3.6 12.1z"/></svg>